M48
; DRILL file KiCad 10.0.4 date 2026-08-09T17:47:35
; FORMAT={-:-/ absolute / metric / decimal}
; #@! TF.CreationDate,2026-08-09T17:47:35+05:30
; #@! TF.GenerationSoftware,Kicad,Pcbnew,10.0.4
; #@! TF.FileFunction,MixedPlating,1,2
FMAT,2
METRIC
; #@! TA.AperFunction,Plated,PTH,ComponentDrill
T1C1.000
%
G90
G05
T1
X129.675Y-118.575
X132.215Y-118.575
X134.755Y-118.575
X137.295Y-118.575
X138.815Y-70.315
X139.835Y-118.575
X141.355Y-70.315
X142.375Y-118.575
X143.895Y-70.315
X144.915Y-118.575
X146.435Y-70.315
X147.455Y-118.575
X148.975Y-70.315
X149.995Y-118.575
X151.515Y-70.315
X152.535Y-118.575
X154.055Y-70.315
X156.595Y-70.315
X156.595Y-118.575
X159.135Y-118.575
X161.675Y-70.315
X161.675Y-118.575
X164.215Y-70.315
X164.215Y-118.575
X166.755Y-70.315
X166.755Y-118.575
X169.295Y-70.315
X169.295Y-118.575
X171.835Y-70.315
X171.835Y-118.575
X174.375Y-70.315
X174.375Y-118.575
X183.5Y-74.25
X183.5Y-76.79
X183.5Y-79.33
X183.5Y-81.87
X183.5Y-84.41
X183.5Y-86.95
X183.5Y-89.49
X183.5Y-92.03
X183.75Y-99.44
X183.75Y-101.98
X183.75Y-104.52
X183.75Y-107.06
M30
